<svg width="32" height="33" viewBox="0 0 32 33" fill="none" xmlns="http://www.w3.org/2000/svg">
<path fill-rule="evenodd" clip-rule="evenodd" d="M18.9562 17.1409C13.5777 11.7017 7.52035 6.96268 2.24627 1.37756C1.7763 0.85595 0.940804 0.828005 0.418617 1.31495C-0.103569 1.80241 -0.155584 2.62209 0.366602 3.14371C5.64069 8.74486 11.698 13.4994 17.0766 18.9546C17.5988 19.4638 18.4341 19.4711 18.9562 18.9702C19.4262 18.4698 19.4784 17.6501 18.9562 17.1409Z" fill="white"/>
<path fill-rule="evenodd" clip-rule="evenodd" d="M28.3319 2.33123C28.4886 5.44436 28.6449 8.55749 28.8016 11.6711C28.8016 12.3842 29.4285 12.9348 30.1596 12.9001C30.8906 12.865 31.4125 12.258 31.4125 11.5444C31.2559 8.42605 31.0995 5.30826 30.9428 2.19047C30.8906 1.47739 30.2639 0.930419 29.5328 0.969229C28.854 1.00804 28.2797 1.61866 28.3319 2.33123Z" fill="white"/>
<path fill-rule="evenodd" clip-rule="evenodd" d="M11.7105 30.1795C8.36852 29.2501 4.86957 28.7813 1.47535 28.3517C0.744293 28.2617 0.0655525 28.7642 0.0133338 29.4721C-0.0911035 30.1805 0.431389 30.8284 1.11023 30.9184C4.40001 31.3319 7.79391 31.7743 10.9793 32.669C11.6581 32.8631 12.3895 32.4636 12.5983 31.7764C12.8072 31.0897 12.3894 30.374 11.7105 30.1795Z" fill="white"/>
</svg>
