<svg width="298" height="39" viewBox="0 0 298 39" fill="none" xmlns="http://www.w3.org/2000/svg">
<path fill-rule="evenodd" clip-rule="evenodd" d="M224.668 0.156145C182.772 0.5995 170.793 0.887911 147.547 2.01375C123.457 3.18047 106.217 4.35 78.8629 6.67318C72.5216 7.21174 65.7317 7.72285 57.7717 8.26066C28.5311 10.2362 22.8411 10.7627 13.3884 12.3662C8.70482 13.1609 4.65438 13.7108 2.38423 13.8607C0.365887 13.9938 0 14.0777 0 14.4068C0 14.6976 3.22806 14.9524 4.99367 14.8008C5.62641 14.7467 7.34067 14.614 8.8033 14.5063C10.2659 14.3984 13.4846 14.1088 15.956 13.8628C21.7755 13.2832 24.5697 13.1004 34.5713 12.6451C51.3851 11.8797 64.0866 11.1442 79.6882 10.0326C85.4379 9.62283 93.072 9.07887 96.6529 8.82369C123.812 6.88805 156.987 5.16203 177.258 4.6302C201.858 3.98448 278.227 3.41363 276.937 3.8848C276.426 4.07167 267.687 5.46146 262.448 6.18913C257.636 6.85761 249.597 7.82179 239.707 8.91645C235.016 9.43579 228.579 10.1545 225.401 10.5137C213.464 11.8631 209.533 12.2817 202.751 12.9255C171.508 15.8912 150.871 18.4755 122.146 23.0189C105.072 25.7193 91.0775 28.8194 75.4601 33.3611C66.5808 35.9432 65.7157 36.4018 66.5897 38.0642C67.1584 39.1458 71.6385 39.286 80.6748 38.5047C97.1885 37.0772 112.707 35.97 127.74 35.1468C137.169 34.6305 138.418 34.5439 148.006 33.7423C151.586 33.443 157.776 33.0055 161.761 32.7702L169.005 32.3426L159.376 32.174C144.786 31.9184 129.134 31.9339 123.98 32.2091C106.915 33.1201 97.6327 33.8212 82.4714 35.3443C78.8576 35.7074 75.8089 35.9732 75.6963 35.9351C74.6106 35.5666 98.9126 29.9988 110.506 27.96C136.677 23.3571 163.627 19.9229 205.044 15.9127C208.826 15.5464 216.419 14.7452 221.917 14.1324C227.414 13.5193 236.08 12.5542 241.174 11.9873C260.78 9.80559 266.622 8.99299 285.465 5.82604C297.534 3.79762 297.598 3.78027 297.927 2.44628C298.289 0.979572 297.322 0.314078 294.552 0.123855C291.921 -0.0570333 242.656 -0.0342638 224.668 0.156145ZM169.787 32.1945C170.015 32.2392 170.345 32.2375 170.52 32.1908C170.696 32.1441 170.509 32.1075 170.105 32.1096C169.702 32.1116 169.559 32.1499 169.787 32.1945Z" fill="white"/>
</svg>
