<svg width="349" height="294" viewBox="0 0 349 294" fill="none" xmlns="http://www.w3.org/2000/svg">
<path fill-rule="evenodd" clip-rule="evenodd" d="M253.236 32.8421C270.166 33.7089 283.623 42.2634 297.08 51.8691C341.215 83.4133 355.975 132.356 325.733 180.45C278.704 255.034 169.164 303.847 84.2234 281.319C65.4121 276.354 39.9444 271.979 21.2778 247.733C3.9135 225.19 4.63701 198.39 12.5957 173.579C20.699 148.14 36.3269 124.727 48.7713 109.677C103.179 44.0144 212.14 -15.6643 310.683 15.7978C312.709 16.404 314.735 15.3615 315.314 13.4695C315.892 11.5774 314.879 9.5486 312.998 8.9424C211.561 -23.4369 99.1272 37.5232 43.1273 105.1C27.6442 123.866 7.38693 155.193 1.59882 187.605C-2.30815 209.758 0.440638 232.404 15.4897 252.103C35.314 277.93 62.3736 282.988 82.3426 288.276C170.032 311.543 283.334 261.303 331.809 184.273C364.367 132.581 348.74 79.9258 301.277 46.0202C286.807 35.5981 272.047 26.5914 253.67 25.6526C251.644 25.5504 249.908 27.0781 249.908 29.0623C249.763 31.0465 251.355 32.7398 253.236 32.8421Z" fill="white"/>
</svg>
