<svg width="69" height="69" viewBox="0 0 69 69" fill="none" xmlns="http://www.w3.org/2000/svg">
<path fill-rule="evenodd" clip-rule="evenodd" d="M65.3282 21.7142C52.3778 45.7952 26.5081 55.5854 2.48074 42.0284C1.68086 41.577 0.666532 41.8592 0.215102 42.6492C-0.236327 43.4533 0.0458467 44.469 0.845723 44.9205C26.5998 59.465 54.3754 49.0962 68.2568 23.2942C68.6913 22.4901 68.388 21.4743 67.5797 21.0369C66.7714 20.6137 65.7627 20.9101 65.3282 21.7142Z" fill="white"/>
<path d="M22.7004 31.7006C25.3755 31.7006 27.5442 29.532 27.5442 26.8569C27.5442 24.1818 25.3755 22.0132 22.7004 22.0132C20.0253 22.0132 17.8567 24.1818 17.8567 26.8569C17.8567 29.532 20.0253 31.7006 22.7004 31.7006Z" fill="white"/>
<path d="M42.7527 26.5481C45.3755 26.5481 47.5018 24.4219 47.5018 21.799C47.5018 19.1762 45.3755 17.05 42.7527 17.05C40.1299 17.05 38.0037 19.1762 38.0037 21.799C38.0037 24.4219 40.1299 26.5481 42.7527 26.5481Z" fill="white"/>
</svg>
