<svg width="138" height="130" viewBox="0 0 138 130" fill="none" xmlns="http://www.w3.org/2000/svg">
<g clip-path="url(#clip0_80_85)" filter="url(#filter0_d_80_85)">
<path fill-rule="evenodd" clip-rule="evenodd" d="M49.1437 63.3444C47.9832 63.8983 46.823 64.4649 45.8735 64.9977C28.8872 74.4119 13.1665 89.1594 4.30411 106.45C3.98759 107.079 4.1986 107.855 4.83163 108.179C5.46466 108.503 6.20382 108.254 6.52033 107.623C15.2772 90.7725 30.5755 76.4186 47.1398 67.2428C47.6673 66.9389 48.3005 66.6235 48.9336 66.3038C49.0391 67.8706 49.5664 69.1609 50.3049 70.2012C51.4655 71.7436 53.2589 72.7913 55.369 73.3726C58.3231 74.1755 61.8043 74.0869 64.9695 73.3526C67.3961 72.7639 69.6119 71.7574 70.9835 70.5156C72.144 69.5143 72.7769 68.3453 72.8824 67.113C72.9879 65.8153 72.461 64.3741 70.8784 62.9266C68.2408 60.4145 64.653 59.6686 60.7493 59.9872C57.9007 60.2236 54.9469 61.0486 52.2038 62.0741C52.5203 61.2174 52.9425 60.2921 53.4701 59.2941C57.6903 51.7958 67.8181 44.7312 79.7402 38.8757C97.8871 29.9837 120.254 23.9573 132.704 23.8971C133.337 23.894 133.97 23.3158 133.97 22.6068C133.97 21.8978 133.337 21.3249 132.704 21.3281C119.938 21.3893 97.1489 27.4917 78.5801 36.5693C66.1305 42.6939 55.5796 50.2048 51.2538 58.0491C50.1988 60.022 49.4603 61.7819 49.1437 63.3444ZM51.4651 65.1306C51.3596 66.575 51.6759 67.7387 52.3089 68.6587C53.1529 69.7718 54.5245 70.4765 56.0016 70.8954C58.5337 71.5917 61.5938 71.4894 64.3369 70.8521C66.236 70.3953 68.0291 69.6673 69.1897 68.7209C69.8227 68.186 70.2454 67.6047 70.3509 66.9337C70.3509 66.2489 69.9282 65.5526 69.1897 64.7888C66.9741 62.7757 64.0202 62.2925 60.9605 62.5478C57.7954 62.8137 54.3137 63.892 51.4651 65.1306Z" fill="white"/>
<path fill-rule="evenodd" clip-rule="evenodd" d="M6.49149 107.5C9.12911 100.57 9.65726 92.4373 8.70771 85.1047C8.60221 84.401 7.96938 83.9009 7.33635 83.9895C6.59782 84.0771 6.06967 84.7196 6.17518 85.4222C7.01922 92.3508 6.5972 100.037 4.06508 106.586C3.85407 107.248 4.17079 107.991 4.80382 108.244C5.54235 108.496 6.28048 108.163 6.49149 107.5Z" fill="white"/>
<path fill-rule="evenodd" clip-rule="evenodd" d="M6.45461 107.868C10.9913 102.394 18.6938 100.156 25.5516 99.2975C26.1847 99.2089 26.7122 98.5653 26.6067 97.8616C26.5012 97.1589 25.8677 96.6599 25.1292 96.7485C17.7439 97.6854 9.40937 100.268 4.45064 106.239C4.02862 106.787 4.13433 107.597 4.66185 108.046C5.18938 108.496 6.03259 108.415 6.45461 107.868Z" fill="white"/>
</g>
<defs>
<filter id="filter0_d_80_85" x="0" y="0" width="138" height="138" filterUnits="userSpaceOnUse" color-interpolation-filters="sRGB">
<feFlood flood-opacity="0" result="BackgroundImageFix"/>
<feColorMatrix in="SourceAlpha" type="matrix" values="0 0 0 0 0 0 0 0 0 0 0 0 0 0 0 0 0 0 127 0" result="hardAlpha"/>
<feOffset dy="4"/>
<feGaussianBlur stdDeviation="2"/>
<feComposite in2="hardAlpha" operator="out"/>
<feColorMatrix type="matrix" values="0 0 0 0 0 0 0 0 0 0 0 0 0 0 0 0 0 0 0.25 0"/>
<feBlend mode="normal" in2="BackgroundImageFix" result="effect1_dropShadow_80_85"/>
<feBlend mode="normal" in="SourceGraphic" in2="effect1_dropShadow_80_85" result="shape"/>
</filter>
<clipPath id="clip0_80_85">
<rect width="130" height="130" fill="white" transform="translate(4)"/>
</clipPath>
</defs>
</svg>
