<svg width="260" height="244" viewBox="0 0 260 244" fill="none" xmlns="http://www.w3.org/2000/svg">
<g clip-path="url(#clip0_28_163)">
<path fill-rule="evenodd" clip-rule="evenodd" d="M247.873 210.119C136.271 208.326 72.1308 123.672 48.7405 30.1335C48.3355 28.5277 46.5923 27.5452 44.8486 27.9501C43.105 28.3549 42.0103 29.986 42.4153 31.5919C66.4548 127.752 132.914 214.28 247.643 216.121C249.43 216.153 250.933 214.831 251.001 213.17C251.069 211.515 249.668 210.15 247.873 210.119Z" fill="white"/>
<path fill-rule="evenodd" clip-rule="evenodd" d="M46.0152 32.6186C49.8624 36.4458 54.6321 41.2993 55.191 41.8351C70.3376 56.357 87.152 67.8842 106.416 77.5053C107.978 78.288 109.96 77.7329 110.835 76.2725C111.711 74.8121 111.148 72.9889 109.585 72.2062C90.9019 62.8821 74.5916 51.7069 59.9009 37.6187C59.044 36.7981 48.3293 25.8814 45.9805 23.8277C45.0214 22.981 44.1887 22.7827 43.9871 22.7533C42.9238 22.5592 42.14 22.8426 41.584 23.1676C40.9593 23.5389 40.0848 24.3817 39.7638 25.8525C39.4345 27.393 39.5967 30.7121 39.5644 31.5543C39.0394 44.2604 39.6497 58.463 37.3256 71.7329C35.1102 84.3879 30.22 96.2089 18.6297 104.793C17.2177 105.837 16.9719 107.733 18.0739 109.02C19.176 110.307 21.2216 110.499 22.6336 109.455C35.5897 99.8558 41.2584 86.7303 43.7351 72.5886C46.0437 59.3967 45.5464 45.3105 46.0152 32.6186Z" fill="white"/>
</g>
<defs>
<clipPath id="clip0_28_163">
<rect width="217.156" height="235.254" fill="white" transform="translate(233.619) rotate(83.2398)"/>
</clipPath>
</defs>
</svg>
